<svg width="750" height="651" viewBox="0 0 750 651" fill="none" xmlns="http://www.w3.org/2000/svg">
<g clip-path="url(#clip0_4209_1806)">
<path d="M414.49 413.609C389.566 438.534 349.15 438.534 324.225 413.609C299.301 388.685 299.301 348.269 324.225 323.344L358.073 289.497L403.206 334.629L448.338 379.762L414.49 413.609Z" fill="#C60000"/>
<path d="M324.225 323.344C299.3 348.269 258.885 348.269 233.96 323.344C209.035 298.42 209.035 258.004 233.96 233.079L267.808 199.232L312.94 244.364L358.073 289.497L324.225 323.344Z" fill="#FFB715"/>
<path d="M233.96 233.079C209.035 258.004 168.62 258.004 143.695 233.079C118.77 208.155 118.77 167.739 143.695 142.814L177.543 108.966L222.675 154.099L267.808 199.232L233.96 233.079Z" fill="#FF3600"/>
<path d="M606.305 289.49C631.229 264.565 631.229 224.15 606.305 199.225C581.38 174.3 540.964 174.3 516.04 199.225L482.192 233.073L527.324 278.205L572.457 323.338L606.305 289.49Z" fill="#C60000"/>
<path d="M516.04 199.225C540.965 174.3 540.965 133.885 516.04 108.96C491.115 84.0354 450.7 84.0354 425.775 108.96L391.927 142.808L437.06 187.94L482.192 233.073L516.04 199.225Z" fill="#FFB715"/>
<path d="M425.775 108.96C450.7 84.0354 450.7 43.6198 425.775 18.6951C400.85 -6.22957 360.435 -6.22957 335.51 18.6951L301.662 52.5429L346.795 97.6754L391.927 142.808L425.775 108.96Z" fill="#FF3600"/>
<path d="M177.543 108.96L267.808 199.225C312.941 154.093 346.788 187.94 391.921 142.808L301.656 52.5429C256.523 97.6754 222.675 63.8276 177.543 108.96Z" fill="#00AEDD"/>
<path d="M358.079 289.49L448.344 379.755C493.477 334.623 527.324 368.47 572.457 323.338L482.192 233.073C437.059 278.205 403.212 244.358 358.079 289.49Z" fill="#00AEDD"/>
<path d="M267.808 199.225L358.073 289.49C403.206 244.358 437.053 278.205 482.186 233.073L391.921 142.808C346.788 187.94 312.941 154.093 267.808 199.225Z" fill="#00CFFF"/>
</g>
<path fill-rule="evenodd" clip-rule="evenodd" d="M622.263 611.226H656.832V611.953C656.832 620.411 653.801 633.261 646.07 641.3C638.34 649.338 629.462 650.802 621.209 650.802C612.956 650.802 603.874 649.441 595.724 641.085C591.648 636.907 585.484 628.449 585.484 614.555C585.484 603.169 589.662 594.086 595.509 588.127C604.07 579.25 614.626 578 622.869 578C628.614 578 635.925 578.942 642.396 583.222C647.096 586.355 651.171 591.26 653.68 595.653L639.16 603.486C637.799 600.772 635.71 597.947 632.996 595.97C629.863 593.676 626.31 592.631 622.347 592.631C615.978 592.631 611.278 594.72 607.93 598.273C604.07 602.348 601.981 608.298 601.981 614.779C601.981 622.714 604.909 627.834 607.828 630.762C611.903 634.94 616.603 636.189 621.927 636.189C628.819 636.189 632.474 633.784 634.041 632.431C634.563 632.012 637.696 629.298 639.058 624.179H622.244V611.226H622.263ZM423.72 647.044C417.556 650.177 412.548 650.802 408.37 650.802C395.52 650.802 386.857 646.419 381.01 640.675C374.743 634.613 370.146 625.428 370.146 614.247C370.146 603.066 374.743 594.086 381.01 588.034C387.174 582.084 396.154 578.009 407.018 578.009C411.615 578.009 416.94 578.951 423.729 581.87V600.464C420.176 596.706 414.851 593.051 407.438 593.051C401.591 593.051 396.891 594.935 393.235 598.478C389.375 602.236 386.652 607.878 386.652 614.564C386.652 621.773 389.58 626.892 392.713 629.914C394.177 631.378 399.185 635.76 407.755 635.76C411.932 635.76 417.574 634.613 423.738 628.552V647.035L423.72 647.044ZM49.5076 589.181C40.9377 580.937 31.2302 579.576 22.0355 579.576H0V649.235H22.5577C28.414 649.235 40.4249 648.508 50.0298 638.791C55.7742 633.047 59.5322 625.008 59.5322 614.145C59.5322 603.281 55.6716 595.13 49.5076 589.181ZM20.3663 635.658H16.086V593.153H20.3663C25.2714 593.153 32.0601 593.881 37.2823 599.103C39.9959 601.817 43.0266 606.414 43.0266 614.145C43.0266 621.875 39.9959 627.825 36.2378 630.958C31.0157 635.341 23.7047 635.658 20.3663 635.658ZM129.714 649.235V579.576H113.628V649.235H129.714ZM197.191 579.576L214.844 624.169L232.487 579.576H249.823L220.262 649.235H209.398L179.846 579.576H197.182H197.191ZM316.041 649.235V579.576H299.955V649.235H316.041ZM492.969 636.078H519.284L524.507 649.235H541.217L513.745 579.576H499.021L470.933 649.235H487.644L492.969 636.078ZM506.341 600.353L514.902 623.75H497.669L506.341 600.353ZM726.706 593.153H750V579.576H710.629V649.245H750V635.667H726.706V620.206H748.844V606.628H726.706V593.153Z" fill="white"/>
<defs>
<clipPath id="clip0_4209_1806">
<rect width="500" height="432.304" fill="white" transform="translate(125)"/>
</clipPath>
</defs>
</svg>
